<svg xmlns="http://www.w3.org/2000/svg" viewBox="0 0 48 48" width="100%" height="100%" fill="none">
  <defs>
    <linearGradient id="bg" x1="0%" y1="0%" x2="100%" y2="100%">
      <stop offset="0%" stopColor="#1E1B4B" />
      <stop offset="100%" stopColor="#0F172A" />
    </linearGradient>
    <linearGradient id="g1" x1="0%" y1="0%" x2="100%" y2="100%">
      <stop offset="0%" stopColor="#38BDF8" />
      <stop offset="50%" stopColor="#6366F1" />
      <stop offset="100%" stopColor="#A855F7" />
    </linearGradient>
    <linearGradient id="g2" x1="100%" y1="0%" x2="0%" y2="100%">
      <stop offset="0%" stopColor="#C084FC" />
      <stop offset="60%" stopColor="#818CF8" />
      <stop offset="100%" stopColor="#06B6D4" />
    </linearGradient>
    <filter id="glow" x="-20%" y="-20%" width="140%" height="140%">
      <feGaussianBlur stdDeviation="1.5" result="blur" />
      <feComposite in="SourceGraphic" in2="blur" operator="over" />
    </filter>
  </defs>
  
  <rect width="48" height="48" rx="12" fill="url(#bg)" stroke="#4F46E5" stroke-width="1" stroke-opacity="0.4"/>
  
  <!-- Left Hemisphere -->
  <path d="M 23 9 C 17 9 11 13 10 19 C 8 21 7 25 8 29 C 9 33 12 36 15 38 C 18 40 21 41 23 43" stroke="url(#g1)" stroke-width="2.2" stroke-linecap="round" stroke-linejoin="round" filter="url(#glow)"/>
  
  <!-- Right Hemisphere -->
  <path d="M 25 9 C 31 9 37 13 38 19 C 40 21 41 25 40 29 C 39 33 36 36 33 38 C 30 40 27 41 25 43" stroke="url(#g2)" stroke-width="2.2" stroke-linecap="round" stroke-linejoin="round" filter="url(#glow)"/>
  
  <!-- Fissure -->
  <path d="M 24 9 L 24 43" stroke="#818CF8" stroke-width="1.5" stroke-linecap="round" stroke-dasharray="2 3" opacity="0.8"/>
  
  <!-- Left Circuit Lines -->
  <path d="M 10 19 C 14 19 16 23 23 23" stroke="url(#g1)" stroke-width="1.8" stroke-linecap="round"/>
  <path d="M 14 14 C 17 17 19 17 23 15" stroke="url(#g1)" stroke-width="1.5" stroke-linecap="round"/>
  <path d="M 8 29 C 13 29 16 33 23 31" stroke="url(#g1)" stroke-width="1.8" stroke-linecap="round"/>
  <path d="M 15 38 C 17 34 20 35 23 39" stroke="url(#g1)" stroke-width="1.5" stroke-linecap="round"/>
  
  <!-- Right Circuit Lines -->
  <path d="M 38 19 C 34 19 32 23 25 23" stroke="url(#g2)" stroke-width="1.8" stroke-linecap="round"/>
  <path d="M 34 14 C 31 17 29 17 25 15" stroke="url(#g2)" stroke-width="1.5" stroke-linecap="round"/>
  <path d="M 40 29 C 35 29 32 33 25 31" stroke="url(#g2)" stroke-width="1.8" stroke-linecap="round"/>
  <path d="M 33 38 C 31 34 28 35 25 39" stroke="url(#g2)" stroke-width="1.5" stroke-linecap="round"/>
  
  <!-- Nodes -->
  <circle cx="10" cy="19" r="1.8" fill="#38BDF8"/>
  <circle cx="14" cy="14" r="1.6" fill="#60A5FA"/>
  <circle cx="16.5" cy="23" r="1.6" fill="#818CF8"/>
  <circle cx="8" cy="29" r="1.8" fill="#6366F1"/>
  <circle cx="15" cy="38" r="1.6" fill="#A855F7"/>
  
  <circle cx="38" cy="19" r="1.8" fill="#C084FC"/>
  <circle cx="34" cy="14" r="1.6" fill="#E879F9"/>
  <circle cx="31.5" cy="23" r="1.6" fill="#A855F7"/>
  <circle cx="40" cy="29" r="1.8" fill="#818CF8"/>
  <circle cx="33" cy="38" r="1.6" fill="#38BDF8"/>
  
  <circle cx="24" cy="23" r="2.2" fill="#FFFFFF"/>
</svg>
